<?xml version="1.0" encoding="UTF-8" standalone="no" ?>
<!DOCTYPE svg PUBLIC "-//W3C//DTD SVG 1.1//EN" "http://www.w3.org/Graphics/SVG/1.1/DTD/svg11.dtd">
<svg xmlns="http://www.w3.org/2000/svg" xmlns:xlink="http://www.w3.org/1999/xlink" version="1.1" width="683.37125" height="992.4" xml:space="preserve">
<desc>Created with Fabric.js 1.6.0-rc.1</desc>
<defs></defs>
<g style="stroke: none; stroke-width: 1; stroke-dasharray: none; stroke-linecap: butt; stroke-linejoin: miter; stroke-miterlimit: 10; fill: none; fill-rule: nonzero; opacity: 1;" transform="translate(10 315.5) rotate(314.57) scale(1.29 1.3)" >
  <rect x="205.28" y="205.28" rx="0" ry="0" width="101.44" height="101.44" style="stroke: none; stroke-width: 1; stroke-dasharray: none; stroke-linecap: butt; stroke-linejoin: miter; stroke-miterlimit: 10; fill: #c20f0f; fill-rule: nonzero; opacity: 1;" transform=" matrix(-0.7071 -0.7071 0.7071 -0.7071 256.0013 618.0273) "/>
  <path d="M 351.638 279.909 L 160.363 88.634 l 83.683 -83.683 c 6.603 -6.603 17.307 -6.603 23.909 0 l 179.32 179.32 L 351.638 279.909 z" style="stroke: none; stroke-width: 1; stroke-dasharray: none; stroke-linecap: butt; stroke-linejoin: miter; stroke-miterlimit: 10; fill: #750010; fill-rule: nonzero; opacity: 1;" transform=" matrix(1 0 0 1 0 0) " stroke-linecap="round" />
  <rect x="327.31" y="134.58" rx="0" ry="0" width="84.53" height="135.25" style="stroke: none; stroke-width: 1; stroke-dasharray: none; stroke-linecap: butt; stroke-linejoin: miter; stroke-miterlimit: 10; fill: #63171d; fill-rule: nonzero; opacity: 1;" transform=" matrix(0.7071 0.7071 -0.7071 0.7071 251.2289 -202.1069) "/>
  <path d="M 423.366 160.362 l 83.682 83.683 c 6.603 6.603 6.603 17.307 0 23.909 L 327.729 447.275 l -95.638 -95.638 L 423.366 160.362 z" style="stroke: none; stroke-width: 1; stroke-dasharray: none; stroke-linecap: butt; stroke-linejoin: miter; stroke-miterlimit: 10; fill: #750019; fill-rule: nonzero; opacity: 1;" transform=" matrix(1 0 0 1 0 0) " stroke-linecap="round" />
  <path d="M 160.363 232.09 l 191.275 191.275 l -83.683 83.682 c -6.603 6.603 -17.307 6.603 -23.909 0 L 64.725 327.728 L 160.363 232.09 z" style="stroke: none; stroke-width: 1; stroke-dasharray: none; stroke-linecap: butt; stroke-linejoin: miter; stroke-miterlimit: 10; fill: #750010; fill-rule: nonzero; opacity: 1;" transform=" matrix(1 0 0 1 0 0) " stroke-linecap="round" />
  <path d="M 244.045 507.048 c 6.604 6.603 17.308 6.603 23.909 0 l 83.684 -83.682 L 220.135 291.864 l -95.636 95.638 L 244.045 507.048 z" style="stroke: none; stroke-width: 1; stroke-dasharray: none; stroke-linecap: butt; stroke-linejoin: miter; stroke-miterlimit: 10; fill: #63171d; fill-rule: nonzero; opacity: 1;" transform=" matrix(1 0 0 1 0 0) " stroke-linecap="round" />
  <path d="M 88.636 351.637 L 4.952 267.955 c -6.603 -6.603 -6.603 -17.307 0 -23.909 L 160.363 88.634 l 95.638 95.638 L 88.636 351.637 z" style="stroke: none; stroke-width: 1; stroke-dasharray: none; stroke-linecap: butt; stroke-linejoin: miter; stroke-miterlimit: 10; fill: #63171d; fill-rule: nonzero; opacity: 1;" transform=" matrix(1 0 0 1 0 0) " stroke-linecap="round" />
  <rect x="248.57" y="223.22" rx="0" ry="0" width="50.72" height="101.44" style="stroke: none; stroke-width: 1; stroke-dasharray: none; stroke-linecap: butt; stroke-linejoin: miter; stroke-miterlimit: 10; fill: #f7880a; fill-rule: nonzero; opacity: 1;" transform=" matrix(0.7071 0.7071 -0.7071 0.7071 273.9399 -113.4618) "/>
</g>
<g style="stroke: none; stroke-width: 1; stroke-dasharray: none; stroke-linecap: butt; stroke-linejoin: miter; stroke-miterlimit: 10; fill: none; fill-rule: nonzero; opacity: 1;" transform="translate(414.86 249.45) rotate(0.46) scale(0.25 0.25)" >
  <path d="M 509.485 295.239 c -5.929 -11.97 -20.437 -16.872 -32.406 -10.945 l -66.599 32.967 l -49.672 -28.677 v -65.169 l 49.672 -28.677 l 66.596 32.966 c 3.449 1.708 7.107 2.515 10.711 2.515 c 8.905 0 17.477 -4.939 21.695 -13.462 c 5.926 -11.97 1.025 -26.479 -10.947 -32.406 l -63.764 -31.564 l 4.547 -71.01 c 0.853 -13.33 -9.262 -24.828 -22.591 -25.682 c -13.351 -0.855 -24.828 9.262 -25.684 22.591 l -4.749 74.161 l -49.67 28.677 l -56.439 -32.585 V 91.588 l 61.849 -41.194 c 11.118 -7.404 14.126 -22.42 6.722 -33.536 c -7.406 -11.118 -22.421 -14.128 -33.538 -6.724 l -59.219 39.443 l -59.216 -39.443 c -11.116 -7.404 -26.132 -4.395 -33.538 6.722 c -7.404 11.118 -4.395 26.132 6.722 33.538 l 61.845 41.194 v 57.355 l -56.437 32.583 l -49.667 -28.677 l -4.752 -74.164 c -0.855 -13.33 -12.343 -23.446 -25.684 -22.59 C 81.941 56.95 71.828 68.448 72.681 81.779 l 4.55 71.009 l -63.766 31.563 c -11.97 5.926 -16.872 20.434 -10.947 32.404 c 4.218 8.523 12.788 13.464 21.695 13.464 c 3.602 0 7.262 -0.808 10.711 -2.515 l 66.597 -32.962 l 49.677 28.681 v 65.161 l -49.673 28.678 l -66.604 -32.967 c -11.972 -5.927 -26.481 -1.022 -32.406 10.945 c -5.926 11.974 -1.025 26.481 10.947 32.406 l 63.772 31.566 l -4.55 71.001 c -0.855 13.331 9.257 24.829 22.588 25.684 c 0.527 0.035 1.05 0.05 1.572 0.05 c 12.651 0 23.291 -9.836 24.114 -22.638 l 4.753 -74.158 l 49.677 -28.678 l 56.428 32.58 v 57.361 l -61.845 41.192 c -11.118 7.404 -14.128 22.419 -6.722 33.536 c 4.66 6.998 12.332 10.784 20.152 10.784 c 4.605 0 9.265 -1.314 13.386 -4.06 l 59.22 -39.441 l 59.216 39.441 c 4.123 2.746 8.778 4.06 13.386 4.06 c 7.819 0 15.492 -3.788 20.152 -10.782 c 7.404 -11.119 4.395 -26.132 -6.722 -33.538 L 280.19 420.41 v -57.355 l 56.433 -32.583 l 49.677 28.68 l 4.749 74.155 c 0.821 12.804 11.461 22.64 24.114 22.64 c 0.519 0 1.043 -0.016 1.57 -0.05 c 13.331 -0.853 23.444 -12.351 22.591 -25.682 l -4.547 -71.004 l 63.767 -31.566 C 510.51 321.718 515.411 307.21 509.485 295.239 z M 312.438 288.578 l -56.434 32.585 l -56.434 -32.585 v -65.164 l 56.434 -32.582 l 56.434 32.582 V 288.578 z" style="stroke: none; stroke-width: 1; stroke-dasharray: none; stroke-linecap: butt; stroke-linejoin: miter; stroke-miterlimit: 10; fill: #e6e6d8; fill-rule: nonzero; opacity: 1;" transform=" matrix(1 0 0 1 0 0) " stroke-linecap="round" />
  <path d="M 509.485 295.239 c -5.929 -11.97 -20.437 -16.872 -32.406 -10.945 l -66.599 32.967 l -49.672 -28.677 v -65.169 l 49.672 -28.677 l 66.596 32.966 c 3.449 1.708 7.107 2.515 10.711 2.515 c 8.905 0 17.477 -4.939 21.695 -13.462 c 5.926 -11.97 1.025 -26.479 -10.947 -32.406 l -63.764 -31.564 l 4.547 -71.01 c 0.853 -13.33 -9.262 -24.828 -22.591 -25.682 c -13.351 -0.855 -24.828 9.262 -25.684 22.591 l -4.749 74.161 l -49.67 28.677 l -56.439 -32.585 V 91.588 l 61.849 -41.194 c 11.118 -7.404 14.126 -22.42 6.722 -33.536 c -7.406 -11.118 -22.421 -14.128 -33.538 -6.724 l -59.219 39.443 v 141.258 l 0.003 -0.002 l 56.434 32.582 v 65.164 l -56.434 32.585 l -0.003 -0.002 v 141.264 l 0.003 -0.002 l 59.216 39.441 c 4.123 2.746 8.778 4.06 13.386 4.06 c 7.819 0 15.492 -3.788 20.152 -10.782 c 7.404 -11.119 4.395 -26.132 -6.722 -33.538 l -61.849 -41.195 v -57.355 l 56.433 -32.583 l 49.677 28.68 l 4.749 74.155 c 0.821 12.804 11.461 22.64 24.114 22.64 c 0.519 0 1.043 -0.016 1.57 -0.05 c 13.331 -0.853 23.444 -12.351 22.591 -25.682 l -4.547 -71.004 l 63.767 -31.566 C 510.51 321.718 515.411 307.21 509.485 295.239 z" style="stroke: none; stroke-width: 1; stroke-dasharray: none; stroke-linecap: butt; stroke-linejoin: miter; stroke-miterlimit: 10; fill: #f0e3da; fill-rule: nonzero; opacity: 1;" transform=" matrix(1 0 0 1 0 0) " stroke-linecap="round" />
</g>
  <g transform="translate(437.9 452.25) rotate(359.86) scale(1.52 1.25)">
   <text font-family="Gross" font-size="40" font-weight="bold" style="stroke: none; stroke-width: 1; stroke-dasharray: none; stroke-linecap: butt; stroke-linejoin: miter; stroke-miterlimit: 10; fill: #ffaa00; fill-rule: nonzero; opacity: 1;" ><tspan x="-102.28" y="8.98" style="stroke: none; stroke-width: 0; stroke-dasharray: none; stroke-linecap: butt; stroke-linejoin: miter; stroke-miterlimit: 4; fill: #ffaa00; fill-rule: ; opacity: 1;">K</tspan><tspan x="-76.2" y="8.98" style="stroke: none; stroke-width: 0; stroke-dasharray: none; stroke-linecap: butt; stroke-linejoin: miter; stroke-miterlimit: 4; fill: #ffaa00; fill-rule: ; opacity: 1;"> </tspan><tspan x="-61.4" y="8.98" style="stroke: none; stroke-width: 0; stroke-dasharray: none; stroke-linecap: butt; stroke-linejoin: miter; stroke-miterlimit: 4; fill: #ffaa00; fill-rule: ; opacity: 1;">A</tspan><tspan x="-29.92" y="8.98" style="stroke: none; stroke-width: 0; stroke-dasharray: none; stroke-linecap: butt; stroke-linejoin: miter; stroke-miterlimit: 4; fill: #ffaa00; fill-rule: ; opacity: 1;"> </tspan><tspan x="-15.12" y="8.98" style="stroke: none; stroke-width: 0; stroke-dasharray: none; stroke-linecap: butt; stroke-linejoin: miter; stroke-miterlimit: 4; fill: #ffaa00; fill-rule: ; opacity: 1;">S</tspan><tspan x="14.8" y="8.98" style="stroke: none; stroke-width: 0; stroke-dasharray: none; stroke-linecap: butt; stroke-linejoin: miter; stroke-miterlimit: 4; fill: #ffaa00; fill-rule: ; opacity: 1;"> </tspan><tspan x="29.6" y="8.98" style="stroke: none; stroke-width: 0; stroke-dasharray: none; stroke-linecap: butt; stroke-linejoin: miter; stroke-miterlimit: 4; fill: #ffaa00; fill-rule: ; opacity: 1;">H</tspan><tspan x="56" y="8.98" style="stroke: none; stroke-width: 0; stroke-dasharray: none; stroke-linecap: butt; stroke-linejoin: miter; stroke-miterlimit: 4; fill: #ffaa00; fill-rule: ; opacity: 1;"> </tspan><tspan x="70.8" y="8.98" style="stroke: none; stroke-width: 0; stroke-dasharray: none; stroke-linecap: butt; stroke-linejoin: miter; stroke-miterlimit: 4; fill: #ffaa00; fill-rule: ; opacity: 1;">A</tspan></text>
 </g>
  <g transform="translate(350.1 36.72)">
   <text font-family="ADAMCG PRO" font-size="40" font-weight="normal" style="stroke: none; stroke-width: 1; stroke-dasharray: none; stroke-linecap: butt; stroke-linejoin: miter; stroke-miterlimit: 10; fill: #000000; fill-rule: nonzero; opacity: 1;" ><tspan x="0" y="8.98" fill="#000000"></tspan></text>
 </g>
  <g transform="translate(630.01 452.44) scale(1.06 1.06)">
   <text font-family="Comic Neue" font-size="40" font-weight="bold" style="stroke: none; stroke-width: 1; stroke-dasharray: none; stroke-linecap: butt; stroke-linejoin: miter; stroke-miterlimit: 10; fill: #ffffff; fill-rule: nonzero; opacity: 1;" ><tspan x="-41.41" y="8.98" style="stroke: none; stroke-width: 0; stroke-dasharray: none; stroke-linecap: butt; stroke-linejoin: miter; stroke-miterlimit: 4; fill: #ffffff; fill-rule: ; opacity: 1;">.</tspan><tspan x="-32.85" y="8.98" style="stroke: none; stroke-width: 0; stroke-dasharray: none; stroke-linecap: butt; stroke-linejoin: miter; stroke-miterlimit: 4; fill: #ffffff; fill-rule: ; opacity: 1;">c</tspan><tspan x="-12.5" y="8.98" style="stroke: none; stroke-width: 0; stroke-dasharray: none; stroke-linecap: butt; stroke-linejoin: miter; stroke-miterlimit: 4; fill: #ffffff; fill-rule: ; opacity: 1;">o</tspan><tspan x="8.89" y="8.98" style="stroke: none; stroke-width: 0; stroke-dasharray: none; stroke-linecap: butt; stroke-linejoin: miter; stroke-miterlimit: 4; fill: #ffffff; fill-rule: ; opacity: 1;">m</tspan></text>
 </g>
  <g transform="translate(497.38 509.72)">
   <text font-family="Northern Lights" font-size="40" font-weight="normal" style="stroke: none; stroke-width: 1; stroke-dasharray: none; stroke-linecap: butt; stroke-linejoin: miter; stroke-miterlimit: 10; fill: #ffffff; fill-rule: nonzero; opacity: 1;" ><tspan x="-135.59" y="8.98" style="stroke: none; stroke-width: 0; stroke-dasharray: none; stroke-linecap: butt; stroke-linejoin: miter; stroke-miterlimit: 4; fill: #ffffff; fill-rule: ; opacity: 1;">H</tspan><tspan x="-113.24" y="8.98" style="stroke: none; stroke-width: 0; stroke-dasharray: none; stroke-linecap: butt; stroke-linejoin: miter; stroke-miterlimit: 4; fill: #ffffff; fill-rule: ; opacity: 1;">o</tspan><tspan x="-91.04" y="8.98" style="stroke: none; stroke-width: 0; stroke-dasharray: none; stroke-linecap: butt; stroke-linejoin: miter; stroke-miterlimit: 4; fill: #ffffff; fill-rule: ; opacity: 1;">t</tspan><tspan x="-73.71" y="8.98" style="stroke: none; stroke-width: 0; stroke-dasharray: none; stroke-linecap: butt; stroke-linejoin: miter; stroke-miterlimit: 4; fill: #ffffff; fill-rule: ; opacity: 1;">e</tspan><tspan x="-53.77" y="8.98" style="stroke: none; stroke-width: 0; stroke-dasharray: none; stroke-linecap: butt; stroke-linejoin: miter; stroke-miterlimit: 4; fill: #ffffff; fill-rule: ; opacity: 1;">l</tspan><tspan x="-48.71" y="8.98" style="stroke: none; stroke-width: 0; stroke-dasharray: none; stroke-linecap: butt; stroke-linejoin: miter; stroke-miterlimit: 4; fill: #ffffff; fill-rule: ; opacity: 1;">s</tspan><tspan x="-32.99" y="8.98" style="stroke: none; stroke-width: 0; stroke-dasharray: none; stroke-linecap: butt; stroke-linejoin: miter; stroke-miterlimit: 4; fill: #ffffff; fill-rule: ; opacity: 1;"> </tspan><tspan x="-23.07" y="8.98" style="stroke: none; stroke-width: 0; stroke-dasharray: none; stroke-linecap: butt; stroke-linejoin: miter; stroke-miterlimit: 4; fill: #ffffff; fill-rule: ; opacity: 1;">&amp;</tspan><tspan x="-1.17" y="8.98" style="stroke: none; stroke-width: 0; stroke-dasharray: none; stroke-linecap: butt; stroke-linejoin: miter; stroke-miterlimit: 4; fill: #ffffff; fill-rule: ; opacity: 1;"> </tspan><tspan x="8.75" y="8.98" style="stroke: none; stroke-width: 0; stroke-dasharray: none; stroke-linecap: butt; stroke-linejoin: miter; stroke-miterlimit: 4; fill: #ffffff; fill-rule: ; opacity: 1;">R</tspan><tspan x="28.85" y="8.98" style="stroke: none; stroke-width: 0; stroke-dasharray: none; stroke-linecap: butt; stroke-linejoin: miter; stroke-miterlimit: 4; fill: #ffffff; fill-rule: ; opacity: 1;">e</tspan><tspan x="48.79" y="8.98" style="stroke: none; stroke-width: 0; stroke-dasharray: none; stroke-linecap: butt; stroke-linejoin: miter; stroke-miterlimit: 4; fill: #ffffff; fill-rule: ; opacity: 1;">s</tspan><tspan x="64.51" y="8.98" style="stroke: none; stroke-width: 0; stroke-dasharray: none; stroke-linecap: butt; stroke-linejoin: miter; stroke-miterlimit: 4; fill: #ffffff; fill-rule: ; opacity: 1;">o</tspan><tspan x="86.72" y="8.98" style="stroke: none; stroke-width: 0; stroke-dasharray: none; stroke-linecap: butt; stroke-linejoin: miter; stroke-miterlimit: 4; fill: #ffffff; fill-rule: ; opacity: 1;">r</tspan><tspan x="102.54" y="8.98" style="stroke: none; stroke-width: 0; stroke-dasharray: none; stroke-linecap: butt; stroke-linejoin: miter; stroke-miterlimit: 4; fill: #ffffff; fill-rule: ; opacity: 1;">t</tspan><tspan x="119.86" y="8.98" style="stroke: none; stroke-width: 0; stroke-dasharray: none; stroke-linecap: butt; stroke-linejoin: miter; stroke-miterlimit: 4; fill: #ffffff; fill-rule: ; opacity: 1;">s</tspan></text>
 </g>
</svg>